<svg id="Layer_1" data-name="Layer 1" xmlns="http://www.w3.org/2000/svg" viewBox="0 0 2000 2000"><defs><style>.cls-1{fill:#1ed660;}</style></defs><title>Spotify [Recovered]</title><path class="cls-1" d="M992.09,4.23C1549.73.41,1996.92,450.58,1996.94,1000.74s-446.3,996.34-996.39,996.34C450.11,1997.07,3.8,1550.77,4,1000.43,4.23,452.6,446,8.89,992.09,4.23ZM1730.72,805c-1.1-32.25-15.92-59.85-46.42-78-54.83-32.69-112.43-59.71-172-82.68-85.21-32.88-172.9-57.06-262.42-74.86-51.91-10.33-104.09-19.14-156.74-24.32-51.18-5-102.48-9.17-153.83-11.87-59.56-3.14-119.21-2.48-178.81.28a1843.34,1843.34,0,0,0-202.12,20c-60.35,9.51-120,22.26-178.48,39.93-45.3,13.68-72,53.9-67.2,101.07,5,48.67,51.44,86.6,100.16,81.26,9.67-1.06,19.26-3.61,28.65-6.3,73.28-21,148-34,223.77-42.11q75.06-8,150.51-9.43c62.64-1.3,125.25,0,187.68,5.65,38.77,3.48,77.57,7.19,116.11,12.61,37.68,5.3,75.21,12.08,112.51,19.66a1313.54,1313.54,0,0,1,209.53,60.71,993,993,0,0,1,149.58,71.73,87.3,87.3,0,0,0,42.24,12.21C1687,902.1,1729.55,861.55,1730.72,805Zm-906,69.55c0-.5,0-1-.08-1.51-41.87,2.46-83.82,4-125.58,7.69-36.09,3.21-72.16,7.71-107.85,13.9-38.28,6.65-76.2,15.53-114.09,24.26C460,922.8,442.81,927.36,426.6,934c-38.24,15.69-56.45,58.48-42.77,97.33,13.54,38.47,54.9,59.57,94.81,48.45,18.73-5.22,37.41-10.66,56.29-15.31,75.84-18.71,152.93-28.93,230.88-32.7a1387.05,1387.05,0,0,1,236.8,9,1350.5,1350.5,0,0,1,161.8,29.78c73.56,18.33,145.06,42.54,213.82,74.66A931.3,931.3,0,0,1,1471,1194.8c18.94,11.6,39.22,15.83,60.75,10,32.51-8.85,52.19-30.4,58.14-63.46,5.61-31.17-9.6-61.87-38-79.19-73.67-45-151.79-80.44-233.32-108.5a1426.52,1426.52,0,0,0-194-51.5,1536.29,1536.29,0,0,0-162.08-22.37C916.67,875.87,870.76,873.87,824.76,874.52Zm21.41,324.33c-23.29.78-46.6,1.42-69.89,2.38a1356.37,1356.37,0,0,0-157.92,15.62c-45.13,7.2-90,16.27-134.89,24.78-12.72,2.4-25.38,5.14-36.37,12.9a62.34,62.34,0,0,0-21.63,74.56c11,26.83,39.52,42.78,67.92,37.39,25.32-4.81,50.36-11.13,75.77-15.29,43.81-7.18,87.72-14,131.77-19.49,44.29-5.55,88.91-7.54,133.56-7.94a1191,1191,0,0,1,161.92,9.35,1023.06,1023.06,0,0,1,147.52,29.79,904.68,904.68,0,0,1,228,99,60,60,0,0,0,45.1,7.86c25.7-5.46,44.37-25.15,48.88-51.26a61,61,0,0,0-29-62.27c-27-15.74-54.14-31.36-82.11-45.26-108.08-53.73-222.65-86.07-342.15-101.45A1366.88,1366.88,0,0,0,846.17,1198.85Z"/></svg>